<?xml version="1.0" encoding="UTF-8" standalone="no"?>
<svg
   xmlns:dc="http://purl.org/dc/elements/1.1/"
   xmlns:cc="http://creativecommons.org/ns#"
   xmlns:rdf="http://www.w3.org/1999/02/22-rdf-syntax-ns#"
   xmlns:svg="http://www.w3.org/2000/svg"
   xmlns="http://www.w3.org/2000/svg"
   viewBox="0 0 92.41333 94.933334"
   height="94.933334"
   width="92.41333"
   xml:space="preserve"
   id="svg2"
   version="1.1"><metadata
     id="metadata8"><rdf:RDF><cc:Work
         rdf:about=""><dc:format>image/svg+xml</dc:format><dc:type
           rdf:resource="http://purl.org/dc/dcmitype/StillImage" /></cc:Work></rdf:RDF></metadata><defs
     id="defs6" /><g
     transform="matrix(1.3333333,0,0,-1.3333333,0,94.933333)"
     id="g10"><g
       transform="scale(0.1)"
       id="g12"><path
         id="path14"
         style="fill:#ffffff;fill-opacity:1;fill-rule:nonzero;stroke:none"
         d="m 371.477,386.934 c -5.442,1.914 -11.301,2.613 -17.551,2.109 -6.25,-0.508 -12.602,-1.68 -19.059,-3.48 -6.449,-1.825 -12.531,-3.446 -18.246,-4.887 -5.703,-1.453 -10.73,-2.16 -15.09,-2.121 -4.347,0.039 -7.476,1.699 -9.39,4.98 -1.317,2.254 -1.493,4.867 -0.547,7.871 0.957,2.996 3.582,5.75 7.898,8.262 3.883,2.262 7.371,2.883 10.457,1.875 3.102,-1.023 5.531,-3.035 7.278,-6.023 l 1.386,-2.395 37.532,21.863 c -6.274,10.766 -14.766,16.328 -25.465,16.688 -10.703,0.355 -24.828,-4.574 -42.367,-14.797 -16.969,-9.887 -28.063,-19.93 -33.293,-30.133 -5.223,-10.203 -4.864,-20.406 1.085,-30.601 3.434,-5.918 7.762,-9.79 12.989,-11.641 5.219,-1.859 10.812,-2.539 16.804,-2.07 5.977,0.488 12.11,1.597 18.387,3.386 6.285,1.77 12.16,3.352 17.629,4.707 5.457,1.36 10.297,1.993 14.512,1.868 4.203,-0.122 7.265,-1.809 9.179,-5.098 1.583,-2.719 1.805,-5.664 0.665,-8.828 -1.133,-3.176 -3.79,-5.981 -7.954,-8.403 -3.882,-2.261 -7.554,-3.242 -11.007,-2.925 -3.461,0.308 -6.442,2.617 -8.95,6.922 l -1.386,2.382 -38.825,-22.617 2.047,-3.508 c 3.059,-5.254 6.77,-8.98 11.145,-11.187 4.375,-2.231 9.398,-3.176 15.066,-2.805 5.664,0.352 11.961,1.934 18.875,4.785 6.91,2.84 14.543,6.68 22.883,11.543 17.688,10.305 29.797,20.586 36.34,30.86 6.531,10.273 6.687,20.742 0.457,31.425 -3.543,6.09 -8.035,10.086 -13.484,11.993" /><path
         id="path16"
         style="fill:#ffffff;fill-opacity:1;fill-rule:nonzero;stroke:none"
         d="m 463.281,516.188 -42.695,-24.883 27.859,-85.02 -0.425,-0.25 -60.215,66.172 -42.063,-24.508 91.028,-81.351 51.753,30.156 -25.242,119.684" /><path
         id="path18"
         style="fill:#ffffff;fill-opacity:1;fill-rule:nonzero;stroke:none"
         d="m 128.66,412.004 -58.0037,5.574 1.0351,-3.883 c 24.6016,-17.871 54.7576,-28.543 87.4296,-28.543 3.84,0 7.609,0.286 11.371,0.575 0.449,0.035 0.91,0.031 1.356,0.07 l 0.265,0.726 -1.871,1.094 -41.582,24.387" /><path
         id="path20"
         style="fill:#ffffff;fill-opacity:1;fill-rule:nonzero;stroke:none"
         d="m 53.0195,590.953 33.0078,50.781 -22.6484,7.043 C 41.5625,630.488 25.0234,606.113 16.4492,578.258 l 9.9961,-1.918 26.5742,14.613" /><path
         id="path22"
         style="fill:#ffffff;fill-opacity:1;fill-rule:nonzero;stroke:none"
         d="m 20.1914,493.352 -2.8711,-5.305 c 8.6406,-26.352 24.418,-49.461 45.0586,-67.09 l 4.0899,-0.41 -23.5157,56.078 -22.7617,16.727" /><path
         id="path24"
         style="fill:#ffffff;fill-opacity:1;fill-rule:nonzero;stroke:none"
         d="m 134.527,456.641 27.621,11.191 19.43,7.867 0.578,3.989 v 10.718 49.282 l -1.789,1.246 -21.488,14.98 -14.305,9.969 -55.8435,-21.746 -3.5196,-51.625 49.3161,-35.871" /><path
         id="path26"
         style="fill:#ffffff;fill-opacity:1;fill-rule:nonzero;stroke:none"
         d="m 139.941,634.746 48.102,20.781 c -0.781,9.012 0.227,21.375 0.578,25.196 -9.539,1.918 -19.398,2.953 -29.5,2.953 -18.894,0 -36.918,-3.672 -53.574,-10.106 L 89.9766,645.027 139.566,634.746 h 0.375" /><path
         id="path28"
         style="fill:#ffffff;fill-opacity:1;fill-rule:nonzero;stroke:none"
         d="m 246.93,571.531 0.004,-12.043 6.171,-10.8 23.969,-41.95 29.395,5.008 c 1.136,7.414 1.91,14.942 1.91,22.668 0,2.672 -0.266,5.277 -0.399,7.914 -0.289,5.442 -0.855,10.793 -1.71,16.063 -0.29,1.769 -0.465,3.578 -0.817,5.324 -3.324,16.64 -9.531,32.219 -17.902,46.375 l -40.625,-2.988 v -0.047 l 0.004,-31.594 v -3.93" /><path
         id="path30"
         style="fill:#ffffff;fill-opacity:1;fill-rule:nonzero;stroke:none"
         d="m 305.344,504.363 -30.028,-5.109 -46.093,-53.586 5.718,-27.531 16.914,-0.465 c 26.895,21.406 46.329,51.808 53.489,86.691" /><path
         id="path32"
         style="fill:#ffffff;fill-opacity:1;fill-rule:nonzero;stroke:none"
         d="m 28.2383,569.262 -5.2735,-69.149 24.9375,-18.328 30.4024,13.637 3.4062,49.953 -28.7617,37.559 -24.7109,-13.672" /><path
         id="path34"
         style="fill:#ffffff;fill-opacity:1;fill-rule:nonzero;stroke:none"
         d="m 146.344,573.293 12.523,-8.734 21.383,-14.903 7.137,-4.972 17.043,5.554 16.949,5.532 18.519,6.046 -0.015,11.293 -0.004,5.543 -0.035,28.188 -0.016,0.207 c -2.777,2.141 -45.965,35.535 -50.43,41.273 -0.007,0.024 -0.011,0.063 -0.027,0.086 l -45.215,-19.265 2.188,-55.848" /><path
         id="path36"
         style="fill:#ffffff;fill-opacity:1;fill-rule:nonzero;stroke:none"
         d="m 187.98,467.379 -3.097,2.031 -1.399,-0.558 -20.804,-8.325 -24.797,-9.922 -1.613,-34.851 32.828,-19.266 7.386,-4.336 5.149,2.727 8.57,4.539 9.508,5.031 28.199,12.692 -5.769,27.804 -34.161,22.434" /><path
         id="path38"
         style="fill:#169e58;fill-opacity:1;fill-rule:nonzero;stroke:none"
         d="m 312.02,683.496 c 2.355,-0.742 3.796,-1.836 4.32,-3.281 0.519,-1.445 0.777,-5.746 0.777,-12.895 v -49.527 h 35.203 v 92.379 h -20.738 c -8.828,-7.469 -21.754,-12.399 -38.769,-14.797 v -10.766 h 3.488 c 8.129,0 13.371,-0.371 15.719,-1.113" /><path
         id="path40"
         style="fill:#169e58;fill-opacity:1;fill-rule:nonzero;stroke:none"
         d="m 417.18,664.32 c -1.133,-1.156 -2.922,-1.738 -5.364,-1.738 -1.621,0 -3.203,0.461 -4.746,1.367 -1.543,0.914 -2.304,3.313 -2.304,7.192 v 17.293 c 0,4.257 0.808,6.875 2.429,7.839 1.633,0.973 3.196,1.457 4.707,1.457 2.5,0 4.289,-0.625 5.364,-1.882 1.074,-1.254 1.613,-3.918 1.613,-7.985 v -16.722 c 0,-3.387 -0.566,-5.657 -1.699,-6.821 z m 1.48,-30.207 c -0.144,-1.144 -0.801,-2.078 -1.961,-2.8 -1.164,-0.723 -2.644,-1.083 -4.441,-1.083 -2.153,0 -3.852,0.379 -5.102,1.141 -1.25,0.762 -1.961,1.703 -2.136,2.828 -0.176,1.117 -0.254,3.828 -0.254,8.129 h -35.203 c 0,-5.785 1.382,-10.574 4.136,-14.379 2.766,-3.804 7.285,-6.754 13.598,-8.844 6.297,-2.093 14.414,-3.14 24.344,-3.14 8.015,0 15.078,0.832 21.172,2.48 6.105,1.657 10.937,4.141 14.511,7.45 3.567,3.308 5.586,6.82 6.055,10.527 0.461,3.711 0.691,11.058 0.691,22.055 v 12.836 c 0,10.156 -0.261,17.003 -0.777,20.542 -0.527,3.536 -2.441,6.911 -5.754,10.129 -3.309,3.211 -7.988,5.676 -14.023,7.387 -6.043,1.711 -13.77,2.567 -23.172,2.567 -7.617,0 -14.297,-0.743 -20.039,-2.227 -5.754,-1.484 -10.254,-3.563 -13.508,-6.246 -3.25,-2.684 -5.274,-5.602 -6.055,-8.758 -0.793,-3.16 -1.179,-7.969 -1.179,-14.434 v -7.363 c 0,-5.441 0.671,-9.758 2.007,-12.949 1.328,-3.199 4.465,-5.938 9.407,-8.219 4.929,-2.285 10.625,-3.422 17.082,-3.422 5.164,0 9.492,0.614 12.976,1.852 3.485,1.238 6.094,3.09 7.844,5.566 v -14.722 c 0,-3.461 -0.078,-5.762 -0.219,-6.903" /><path
         id="path42"
         style="fill:#169e58;fill-opacity:1;fill-rule:nonzero;stroke:none"
         d="m 494.363,649.805 15.547,39.312 v -39.312 z m 15.547,-32.012 h 35.207 v 16.262 h 10.02 v 15.75 h -10.02 v 60.367 h -46.609 l -30.41,-60.367 v -15.75 h 41.812 v -16.262" /><path
         id="path44"
         style="fill:#169e58;fill-opacity:1;fill-rule:nonzero;stroke:none"
         d="m 604.785,656.82 c 0,3.383 0.567,5.657 1.699,6.817 1.133,1.164 2.911,1.742 5.352,1.742 2.5,0 4.297,-0.609 5.398,-1.824 1.106,-1.223 1.661,-3.461 1.661,-6.735 v -17.289 c 0,-4.258 -0.821,-6.875 -2.442,-7.847 -1.629,-0.965 -3.191,-1.454 -4.707,-1.454 -2.5,0 -4.273,0.629 -5.351,1.883 -1.082,1.258 -1.61,3.918 -1.61,7.989 z M 576.16,625.98 c 3.281,-3.218 7.942,-5.675 13.985,-7.386 6.039,-1.715 13.793,-2.571 23.261,-2.571 7.61,0 14.27,0.743 19.992,2.223 5.723,1.484 10.223,3.57 13.504,6.25 3.286,2.684 5.305,5.602 6.059,8.762 0.75,3.152 1.133,7.969 1.133,14.433 v 7.364 c 0,5.437 -0.664,9.754 -2.004,12.949 -1.336,3.195 -4.473,5.93 -9.414,8.215 -4.934,2.281 -10.625,3.426 -17.071,3.426 -5.117,0 -9.414,-0.622 -12.902,-1.856 -3.473,-1.234 -6.121,-3.094 -7.918,-5.562 v 14.722 c 0,3.457 0.078,5.762 0.254,6.903 0.176,1.14 0.84,2.07 2.012,2.793 1.152,0.722 2.637,1.085 4.441,1.085 2.141,0 3.84,-0.382 5.09,-1.14 1.25,-0.762 1.953,-1.703 2.102,-2.824 0.132,-1.125 0.211,-3.836 0.211,-8.133 h 35.199 c 0,5.781 -1.367,10.578 -4.094,14.383 -2.734,3.8 -7.266,6.746 -13.594,8.839 -6.328,2.09 -14.433,3.141 -24.304,3.141 -8.02,0 -15.09,-0.828 -21.211,-2.484 -6.133,-1.657 -10.969,-4.137 -14.512,-7.446 -3.547,-3.308 -5.559,-6.816 -6.059,-10.527 -0.484,-3.707 -0.742,-11.062 -0.742,-22.051 v -12.785 c 0,-10.191 0.277,-17.055 0.832,-20.594 0.559,-3.535 2.473,-6.914 5.75,-10.129" /><path
         id="path46"
         style="fill:#169e58;fill-opacity:1;fill-rule:nonzero;stroke:none"
         d="M 637.18,272.02 C 597.645,127.52 482.793,44.3633 426.309,22.5781 h -0.782 C 376.465,41.5039 283.496,106.797 233.992,218.32 L 668.711,472.645 C 664.758,413.254 656.008,340.82 637.18,272.02 Z m -291.438,175.679 42.063,24.508 60.215,-66.172 0.425,0.25 -27.859,85.02 42.695,24.883 25.242,-119.684 -51.753,-30.156 z m -328.4217,40.348 2.8711,5.305 22.7617,-16.727 23.5157,-56.078 -4.0899,0.41 c -20.6406,17.629 -36.418,40.738 -45.0586,67.09 z m 71.4102,56.09 55.8435,21.746 14.305,-9.969 21.488,-14.98 1.789,-1.246 v -49.282 -10.718 l -0.578,-3.989 -19.43,-7.867 -27.621,-11.191 -49.3161,35.871 z M 306.27,558.391 c 0.855,-5.27 1.421,-10.621 1.71,-16.063 0.133,-2.637 0.399,-5.242 0.399,-7.914 0,-7.726 -0.774,-15.254 -1.91,-22.668 l -29.395,-5.008 -23.969,41.95 -6.171,10.8 -0.004,12.043 v 3.93 l -0.004,31.594 v 0.047 l 40.625,2.988 c 8.371,-14.156 14.578,-29.735 17.902,-46.375 0.352,-1.746 0.527,-3.555 0.817,-5.324 z m -168.387,-107.786 24.797,9.922 20.804,8.325 1.399,0.558 3.097,-2.031 34.161,-22.434 5.769,-27.804 -28.199,-12.692 -9.508,-5.031 -8.57,-4.539 -5.149,-2.727 -7.386,4.336 -32.828,19.266 z m 51.515,197.715 c 4.465,-5.738 47.653,-39.132 50.43,-41.273 l 0.016,-0.207 0.035,-28.188 0.004,-5.543 0.015,-11.293 -18.519,-6.046 -16.949,-5.532 -17.043,-5.554 -7.137,4.972 -21.383,14.903 -12.523,8.734 -2.188,55.848 45.215,19.265 c 0.016,-0.023 0.02,-0.062 0.027,-0.086 z M 28.2383,569.262 52.9492,582.934 81.7109,545.375 78.3047,495.422 47.9023,481.785 22.9648,500.113 Z m 223.6167,-151.59 -16.914,0.465 -5.718,27.531 46.093,53.586 30.028,5.109 c -7.16,-34.883 -26.594,-65.285 -53.489,-86.691 z m -92.734,266.004 c 10.102,0 19.961,-1.035 29.5,-2.953 -0.351,-3.821 -1.359,-16.184 -0.578,-25.196 l -48.102,-20.781 h -0.375 l -49.5894,10.281 15.5704,28.543 c 16.656,6.434 34.68,10.106 53.574,10.106 z M 63.3789,648.777 86.0273,641.734 53.0195,590.953 26.4453,576.34 l -9.9961,1.918 c 8.5742,27.855 25.1133,52.23 46.9297,70.519 z M 159.121,385.152 c -32.672,0 -62.828,10.672 -87.4296,28.543 l -1.0351,3.883 58.0037,-5.574 41.582,-24.387 1.871,-1.094 -0.265,-0.726 c -0.446,-0.039 -0.907,-0.035 -1.356,-0.07 -3.762,-0.289 -7.531,-0.575 -11.371,-0.575 z m 186.484,-37.855 c -1.914,3.289 -4.976,4.976 -9.179,5.098 -4.215,0.125 -9.055,-0.508 -14.512,-1.868 -5.469,-1.355 -11.344,-2.937 -17.629,-4.707 -6.277,-1.789 -12.41,-2.898 -18.387,-3.386 -5.992,-0.469 -11.585,0.211 -16.804,2.07 -5.227,1.851 -9.555,5.723 -12.989,11.641 -5.949,10.195 -6.308,20.398 -1.085,30.601 5.23,10.203 16.324,20.246 33.293,30.133 17.539,10.223 31.664,15.152 42.367,14.797 10.699,-0.36 19.191,-5.922 25.465,-16.688 l -37.532,-21.863 -1.386,2.395 c -1.747,2.988 -4.176,5 -7.278,6.023 -3.086,1.008 -6.574,0.387 -10.457,-1.875 -4.316,-2.512 -6.941,-5.266 -7.898,-8.262 -0.946,-3.004 -0.77,-5.617 0.547,-7.871 1.914,-3.281 5.043,-4.941 9.39,-4.98 4.36,-0.039 9.387,0.668 15.09,2.121 5.715,1.441 11.797,3.062 18.246,4.887 6.457,1.8 12.809,2.972 19.059,3.48 6.25,0.504 12.109,-0.195 17.551,-2.109 5.449,-1.907 9.941,-5.903 13.484,-11.993 6.23,-10.683 6.074,-21.152 -0.457,-31.425 -6.543,-10.274 -18.652,-20.555 -36.34,-30.86 -8.34,-4.863 -15.973,-8.703 -22.883,-11.543 -6.914,-2.851 -13.211,-4.433 -18.875,-4.785 -5.668,-0.371 -10.691,0.574 -15.066,2.805 -4.375,2.207 -8.086,5.933 -11.145,11.187 l -2.047,3.508 38.825,22.617 1.386,-2.382 c 2.508,-4.305 5.489,-6.614 8.95,-6.922 3.453,-0.317 7.125,0.664 11.007,2.925 4.164,2.422 6.821,5.227 7.954,8.403 1.14,3.164 0.918,6.109 -0.665,8.828 z m 346.7,250.23 c 0,0 -30.364,-24.363 -171.133,-32.14 -117.195,0.176 -202.266,45.371 -237.949,68.355 -29.184,36.391 -73.93,59.789 -124.102,59.789 C 71.3828,693.531 0,622.152 0,534.414 0,446.676 71.3828,375.297 159.121,375.297 c 4.313,0 8.543,0.308 12.77,0.648 5.211,-35.855 12.402,-73.125 22.367,-109.539 C 237.871,107.004 368.613,18.2305 425.891,0.0585938 V 0 c 0.027,0.0117188 0.054,0.0195313 0.086,0.0273438 C 425.996,0.0195313 426.023,0.0117188 426.055,0 V 0.0585938 C 483.328,18.2305 614.07,107.004 657.688,266.406 c 43.652,159.539 34.617,331.121 34.617,331.121" /><path
         id="path48"
         style="fill:#169e58;fill-opacity:1;fill-rule:nonzero;stroke:none"
         d="m 308.723,124.102 45.547,26.535 -11.422,19.605 -25.133,-14.637 -42.25,72.52 -20.414,-11.895 53.672,-92.128" /><path
         id="path50"
         style="fill:#169e58;fill-opacity:1;fill-rule:nonzero;stroke:none"
         d="m 409.141,182.605 -11.414,19.614 -27.004,-15.727 -10.672,18.332 24.351,14.192 -10.972,18.828 -24.364,-14.192 -9.168,15.743 26.008,15.144 -11.426,19.621 -46.421,-27.043 53.671,-92.129 47.411,27.617" /><path
         id="path52"
         style="fill:#169e58;fill-opacity:1;fill-rule:nonzero;stroke:none"
         d="m 437.012,198.848 -22.102,37.937 12.524,7.297 22.086,-37.937 20.414,11.89 -53.672,92.129 -20.41,-11.894 19.695,-33.805 -12.512,-7.297 -19.695,33.809 -20.41,-11.895 53.672,-92.129 20.41,11.895" /><path
         id="path54"
         style="fill:#169e58;fill-opacity:1;fill-rule:nonzero;stroke:none"
         d="m 473.098,291.074 -4.067,-2.363 -12.625,21.68 3.953,2.293 c 3.071,1.796 5.762,2.265 8.071,1.425 2.3,-0.847 4.578,-3.203 6.843,-7.07 1.907,-3.277 2.747,-6.324 2.532,-9.156 -0.207,-2.832 -1.782,-5.11 -4.707,-6.809 z m 26.914,-55.515 -21.496,36.89 5.379,3.125 c 1.242,0.727 2.394,1.153 3.46,1.262 1.063,0.098 2.165,-0.188 3.29,-0.859 1.125,-0.664 2.293,-1.797 3.515,-3.399 1.223,-1.594 2.586,-3.672 4.082,-6.25 l 3.613,-6.191 c 0.555,-0.949 1.29,-2.168 2.2,-3.653 0.918,-1.484 1.914,-3.007 2.965,-4.582 1.054,-1.558 2.199,-3.093 3.402,-4.578 1.211,-1.484 2.422,-2.683 3.633,-3.586 l 21.726,12.657 -0.754,1.289 c -0.894,0.05 -1.636,0.214 -2.207,0.519 -0.562,0.305 -1.148,0.637 -1.746,0.969 -0.515,0.387 -1.125,1.012 -1.828,1.883 -0.691,0.859 -1.414,1.843 -2.168,2.968 -0.75,1.122 -1.504,2.332 -2.254,3.622 -0.754,1.289 -1.472,2.531 -2.179,3.742 l -4.586,7.871 c -3.606,6.191 -7.356,10.515 -11.235,12.976 -3.886,2.461 -8.433,2.512 -13.633,0.188 l -0.156,0.254 c 4.192,3.586 6.235,7.89 6.153,12.922 -0.079,5.007 -1.93,10.613 -5.536,16.804 -2.058,3.536 -4.343,6.575 -6.867,9.153 -2.527,2.554 -5.281,4.429 -8.277,5.625 -3,1.187 -6.223,1.582 -9.668,1.199 -3.449,-0.402 -7.102,-1.731 -10.981,-3.984 l -31.929,-18.606 53.672,-92.129 20.41,11.899" /><path
         id="path56"
         style="fill:#169e58;fill-opacity:1;fill-rule:nonzero;stroke:none"
         d="m 509.133,336.965 41.797,-71.738 20.41,11.89 -41.797,71.738 15.367,8.95 -11.875,20.386 -50.926,-29.668 11.875,-20.386 15.149,8.828" /><path
         id="path58"
         style="fill:#169e58;fill-opacity:1;fill-rule:nonzero;stroke:none"
         d="m 638.723,316.379 -11.418,19.605 -27,-15.73 -10.676,18.332 24.363,14.195 -10.972,18.828 -24.368,-14.199 -9.172,15.742 26.008,15.157 -11.425,19.621 -46.418,-27.051 53.671,-92.129 47.407,27.629" /></g></g></svg>